<?xml version="1.0" encoding="utf-8"?>
<!-- Generator: Adobe Illustrator 23.0.1, SVG Export Plug-In . SVG Version: 6.00 Build 0)  -->
<svg version="1.1" id="Layer_1" xmlns="http://www.w3.org/2000/svg" xmlns:xlink="http://www.w3.org/1999/xlink" x="0px" y="0px"
	 viewBox="0 0 492 81.3" style="enable-background:new 0 0 492 81.3;" xml:space="preserve">
<style type="text/css">
	.st0{enable-background:new    ;}
	.st1{fill:#FFFFFF;}
</style>
<title>Asset 2</title>
<g>
	<g id="Layer_1-2">
		<g class="st0">
			<path class="st1" d="M73.2,11.2H97c8.6,0,13,5.5,13,11.5c0,5.7-3.5,9.5-7.8,10.4c4.8,0.7,8.7,5.4,8.7,11.1
				c0,6.8-4.5,12.2-13.1,12.2H73.2V11.2z M94.9,29.4c3.2,0,5.3-2.1,5.3-5c0-2.8-2-4.9-5.3-4.9h-12v9.9H94.9z M95.2,48.2
				c3.7,0,5.8-2.1,5.8-5.3c0-2.8-2-5.3-5.8-5.3H82.9v10.6H95.2z"/>
			<path class="st1" d="M136.6,53c-2.2,2.6-6.1,4.2-10.4,4.2c-5.2,0-11.4-3.5-11.4-10.8c0-7.6,6.2-10.4,11.4-10.4
				c4.3,0,8.2,1.4,10.4,4v-4.5c0-3.3-2.8-5.5-7.2-5.5c-3.5,0-6.8,1.3-9.5,3.9l-3.2-5.8c4-3.5,9.1-5.1,14.3-5.1
				c7.4,0,14.3,3,14.3,12.4v21.1h-8.6V53z M136.6,44.5c-1.4-1.9-4.1-2.8-6.9-2.8c-3.4,0-6.2,1.8-6.2,4.9c0,3,2.8,4.8,6.2,4.8
				c2.8,0,5.5-0.9,6.9-2.8V44.5z"/>
			<path class="st1" d="M152.8,11.2h8.6v45.1h-8.6V11.2z"/>
			<path class="st1" d="M170.6,48.2V31.2h-5.4v-7.5h5.4v-8.9h8.7v8.9h6.6v7.5h-6.6v14.8c0,2,1.1,3.6,3,3.6c1.3,0,2.5-0.5,3-0.9
				l1.8,6.5c-1.3,1.2-3.6,2.1-7.2,2.1C173.9,57.2,170.6,54.1,170.6,48.2z"/>
			<path class="st1" d="M190,13.7c0-2.8,2.4-5.1,5.1-5.1c2.8,0,5.1,2.3,5.1,5.1c0,2.8-2.3,5.1-5.1,5.1C192.3,18.9,190,16.6,190,13.7
				z M190.9,23.7h8.6v32.7h-8.6V23.7z"/>
			<path class="st1" d="M219.5,43.8l-3.9,4.2v8.4H207V11.2h8.6v27L228,23.7h10.6l-12.9,14.8L239,56.4h-10.8L219.5,43.8z"/>
			<path class="st1" d="M261.9,53c-2.2,2.6-6.1,4.2-10.4,4.2c-5.2,0-11.4-3.5-11.4-10.8c0-7.6,6.2-10.4,11.4-10.4
				c4.3,0,8.2,1.4,10.4,4v-4.5c0-3.3-2.8-5.5-7.2-5.5c-3.5,0-6.8,1.3-9.5,3.9l-3.2-5.8c4-3.5,9.1-5.1,14.3-5.1
				c7.4,0,14.3,3,14.3,12.4v21.1h-8.6V53z M261.9,44.5c-1.4-1.9-4.1-2.8-6.9-2.8c-3.4,0-6.2,1.8-6.2,4.9c0,3,2.8,4.8,6.2,4.8
				c2.8,0,5.5-0.9,6.9-2.8V44.5z"/>
			<path class="st1" d="M316.5,10.5c9.3,0,15.2,4.5,18.7,9.9l-8,4.3c-2.1-3.2-6-5.7-10.7-5.7c-8.2,0-14.1,6.3-14.1,14.8
				c0,8.5,6,14.8,14.1,14.8c4.1,0,7.8-1.7,9.7-3.5v-5.5h-12v-8.3h21.5v17.3c-4.6,5.1-11,8.5-19.2,8.5c-13.2,0-24-9.2-24-23.4
				C292.5,19.6,303.3,10.5,316.5,10.5z"/>
			<path class="st1" d="M342.2,23.7h8.6v4.5c2.3-2.9,6.4-5.2,10.4-5.2v8.4c-0.6-0.1-1.4-0.3-2.4-0.3c-2.8,0-6.6,1.6-8.1,3.7v21.6
				h-8.6V23.7z"/>
			<path class="st1" d="M363.5,40c0-9.3,6.5-17.1,17.3-17.1c10.8,0,17.3,7.8,17.3,17.1c0,9.3-6.5,17.2-17.3,17.2
				C370,57.2,363.5,49.3,363.5,40z M389.2,40c0-5.1-3-9.5-8.4-9.5c-5.3,0-8.3,4.4-8.3,9.5c0,5.1,3,9.5,8.3,9.5
				C386.1,49.5,389.2,45.1,389.2,40z"/>
			<path class="st1" d="M425.6,52.2c-2.2,2.5-6.2,4.9-11.5,4.9c-7.2,0-10.6-3.9-10.6-10.3V23.7h8.6v19.8c0,4.5,2.4,6,6,6
				c3.3,0,6-1.8,7.4-3.7V23.7h8.6v32.7h-8.6V52.2z"/>
			<path class="st1" d="M441.8,68.8V23.7h8.6v4.1c2.5-3.2,6.1-4.9,10.1-4.9c8.4,0,14.5,6.2,14.5,17.1s-6.1,17.2-14.5,17.2
				c-3.9,0-7.4-1.6-10.1-5v16.6H441.8z M457.7,30.5c-2.8,0-6,1.6-7.4,3.7v11.6c1.4,2,4.6,3.7,7.4,3.7c4.9,0,8.3-3.9,8.3-9.5
				C466,34.4,462.7,30.5,457.7,30.5z"/>
		</g>
		<path class="st1" d="M19.8,27.8L32,12.2c11.1-5.8,31.5-3,20.6,18.5c-5.8,11.6-18.7,19.6-29.3,22.5C3,58.8-13.3,47.8,15.8,23.1
			C-8,51,12.4,54.2,27.7,43.5c9.9-7,16.1-18.3,9.7-21.4C31.9,19.4,19.4,27.8,19.8,27.8z"/>
	</g>
</g>
</svg>
