<?xml version="1.0" encoding="utf-8"?>
<!-- Generator: Adobe Illustrator 23.0.1, SVG Export Plug-In . SVG Version: 6.00 Build 0)  -->
<svg version="1.1" id="Capa_1" xmlns="http://www.w3.org/2000/svg" xmlns:xlink="http://www.w3.org/1999/xlink" x="0px" y="0px"
	 viewBox="0 0 512 405.3" style="enable-background:new 0 0 512 405.3;" xml:space="preserve">
<style type="text/css">
	.st0{fill:#FFFFFF;}
</style>
<path class="st0" d="M511.2,206.6c1.6-4,0.7-8.6-2.3-11.6L316.9,3c-4.2-4.1-11-4-15.1,0.3c-4,4.1-4,10.7,0,14.8l173.8,173.8H10.7
	c-5.9,0-10.7,4.8-10.7,10.7c0,5.9,4.8,10.7,10.7,10.7h464.9L301.8,387c-4.2,4.1-4.4,10.8-0.3,15.1c4.1,4.2,10.8,4.4,15.1,0.3
	c0.1-0.1,0.2-0.2,0.3-0.3l192-192C509.9,209.1,510.7,207.9,511.2,206.6z"/>
<path class="st0" d="M309.3,405.2c-5.9,0-10.7-4.8-10.7-10.6c0-2.8,1.1-5.6,3.1-7.6l184.5-184.4L301.8,18.1c-4.1-4.2-4-11,0.3-15.1
	c4.1-4,10.7-4,14.8,0l192,192c4.2,4.2,4.2,10.9,0,15.1l-192,192C314.9,404.1,312.2,405.2,309.3,405.2z"/>
<path class="st0" d="M501.3,213.2H10.7c-5.9,0-10.7-4.8-10.7-10.7c0-5.9,4.8-10.7,10.7-10.7h490.7c5.9,0,10.7,4.8,10.7,10.7
	C512,208.4,507.2,213.2,501.3,213.2z"/>
</svg>
