<?xml version="1.0" standalone="no"?>
<!DOCTYPE svg PUBLIC "-//W3C//DTD SVG 20010904//EN"
 "http://www.w3.org/TR/2001/REC-SVG-20010904/DTD/svg10.dtd">
<svg version="1.0" xmlns="http://www.w3.org/2000/svg"
 width="896.000000pt" height="896.000000pt" viewBox="0 0 896.000000 896.000000"
 preserveAspectRatio="xMidYMid meet">
<metadata>
Created by potrace 1.11, written by Peter Selinger 2001-2013
</metadata>
<g transform="translate(0.000000,896.000000) scale(0.100000,-0.100000)"
fill="#000000" stroke="none">
<path d="M6619 8096 c-2 -2 -38 -7 -79 -10 -77 -7 -122 -12 -175 -20 -49 -7
-109 -17 -130 -21 -23 -4 -209 -44 -240 -51 -11 -3 -30 -7 -42 -10 -44 -9
-269 -75 -313 -92 -25 -9 -47 -17 -50 -18 -3 0 -12 -4 -20 -7 -8 -4 -46 -19
-85 -33 -38 -14 -85 -32 -103 -38 -18 -7 -38 -18 -44 -24 -7 -7 -17 -12 -23
-12 -7 0 -47 -18 -91 -39 -60 -30 -88 -51 -116 -88 -56 -74 -112 -146 -131
-168 -9 -11 -70 -90 -137 -175 -66 -85 -131 -168 -144 -185 -14 -16 -93 -118
-176 -225 -83 -107 -159 -204 -168 -215 -16 -18 -74 -92 -94 -120 -4 -5 -20
-26 -36 -45 -15 -19 -109 -138 -207 -265 -99 -126 -199 -255 -223 -285 -24
-30 -49 -62 -55 -70 -25 -32 -121 -156 -129 -165 -9 -11 -146 -186 -248 -317
-35 -46 -68 -84 -72 -86 -5 -2 -8 -8 -8 -13 0 -5 -8 -17 -17 -27 -30 -31 -53
-62 -47 -62 2 0 46 28 97 63 51 35 99 66 107 70 8 4 58 34 110 67 52 33 120
73 150 90 30 17 91 51 135 76 104 58 515 263 515 257 0 -3 10 1 23 9 25 17
299 129 373 153 27 9 56 19 64 22 8 4 17 7 20 8 3 1 30 9 60 19 109 35 263 75
271 70 4 -2 10 0 13 5 3 5 30 13 59 17 28 4 54 8 57 9 139 33 429 39 548 10
12 -3 31 -7 43 -10 11 -2 30 -7 42 -11 12 -5 27 -8 32 -9 20 -1 131 -59 190
-99 60 -40 165 -139 165 -156 0 -4 4 -10 9 -12 14 -5 76 -126 95 -186 44 -133
52 -321 21 -497 -3 -16 -8 -36 -11 -44 -2 -8 -7 -30 -10 -50 -3 -20 -10 -44
-15 -53 -5 -10 -8 -18 -5 -18 5 0 -42 -141 -64 -195 -7 -16 -14 -35 -15 -41
-5 -23 -135 -294 -146 -304 -3 -3 -22 -36 -43 -75 -22 -38 -56 -96 -77 -127
-22 -32 -39 -62 -39 -67 0 -6 -8 -15 -17 -20 -10 -6 -14 -11 -10 -11 4 0 3 -6
-3 -12 -12 -15 -110 -152 -125 -176 -5 -9 -14 -21 -20 -28 -5 -6 -23 -28 -40
-50 -174 -222 -259 -318 -480 -539 -190 -190 -254 -250 -354 -335 -30 -25 -59
-50 -65 -55 -33 -31 -176 -144 -266 -211 -57 -42 -108 -80 -114 -85 -38 -30
-106 -78 -106 -74 0 2 -33 -18 -73 -46 -39 -27 -79 -54 -87 -59 -29 -19 -175
-106 -190 -113 -8 -4 -28 -15 -45 -25 -72 -44 -245 -136 -257 -137 -4 0 -13
-6 -20 -12 -6 -7 -20 -13 -29 -13 -9 0 -22 -7 -29 -15 -7 -8 -16 -15 -21 -15
-5 0 -37 -13 -71 -29 -151 -68 -174 -79 -198 -86 -14 -4 -29 -11 -35 -15 -5
-4 -39 -17 -75 -30 -36 -13 -78 -29 -95 -36 -86 -37 -481 -150 -585 -168 -14
-2 -65 -11 -114 -21 -50 -9 -108 -18 -130 -21 -23 -2 -72 -7 -111 -11 -141
-15 -480 -9 -570 10 -27 6 -99 19 -102 19 -28 -4 -305 103 -311 120 -2 4 -8 8
-14 8 -15 0 -129 83 -175 127 -21 21 -55 58 -74 83 -37 46 -109 165 -109 179
0 5 -8 26 -17 47 -9 22 -17 44 -19 49 -1 6 -6 28 -12 50 -21 80 -26 133 -27
280 0 134 8 241 20 285 2 8 7 31 10 50 7 41 53 228 62 250 3 8 7 22 9 31 2 9
9 29 15 45 7 16 13 34 14 39 7 29 79 211 86 220 5 5 9 17 9 27 0 10 5 18 10
18 6 0 10 7 10 15 0 9 18 51 40 95 22 44 37 80 34 80 -4 0 0 7 7 16 7 9 30 48
49 88 39 75 101 190 129 237 9 15 32 53 51 86 19 32 37 63 39 68 2 6 17 29 32
52 16 23 29 44 29 48 0 3 5 11 10 18 6 7 35 50 65 97 30 47 59 90 65 97 5 7
10 16 10 22 0 5 3 11 8 13 4 2 24 28 44 58 30 46 111 161 172 245 60 83 141
191 145 195 3 3 18 23 33 45 15 22 38 51 51 65 12 14 33 41 47 60 13 19 30 39
37 43 7 5 11 12 8 18 -4 5 -2 9 3 9 5 0 36 35 69 78 83 105 106 133 123 152 8
8 41 48 73 88 32 40 68 81 79 92 12 11 19 23 15 26 -3 3 -21 -9 -40 -28 -40
-38 -129 -116 -169 -148 -15 -11 -40 -33 -55 -48 -16 -15 -53 -49 -83 -76
-165 -146 -290 -266 -520 -496 -307 -307 -464 -476 -645 -698 -11 -13 -28 -33
-37 -43 -10 -10 -18 -23 -18 -29 0 -5 -4 -10 -8 -10 -5 0 -33 -32 -63 -71
-102 -135 -164 -218 -179 -239 -8 -12 -22 -32 -31 -44 -9 -11 -52 -75 -96
-141 -74 -113 -114 -177 -177 -285 -30 -52 -175 -342 -193 -386 -53 -131 -110
-295 -119 -344 -3 -14 -10 -41 -16 -60 -7 -19 -13 -44 -14 -55 -1 -11 -7 -45
-13 -75 -22 -116 -24 -139 -25 -289 -1 -89 3 -179 10 -215 7 -33 15 -74 18
-91 17 -105 102 -306 170 -405 41 -60 140 -174 195 -225 24 -22 49 -45 55 -50
6 -6 33 -26 61 -45 27 -19 58 -43 69 -52 11 -10 26 -18 33 -18 7 0 13 -4 13
-8 0 -5 27 -22 60 -38 33 -16 60 -32 60 -36 0 -5 5 -8 12 -8 6 0 30 -9 52 -19
88 -41 135 -61 219 -90 48 -16 87 -27 87 -24 0 3 6 1 13 -5 12 -11 192 -58
252 -67 17 -3 41 -7 55 -10 14 -3 42 -8 64 -11 21 -3 48 -8 60 -11 11 -2 44
-7 71 -9 28 -2 64 -6 80 -9 195 -31 768 -25 1025 10 30 5 73 9 95 11 22 1 41
3 43 4 1 2 10 3 20 4 9 2 37 6 62 10 25 4 59 9 75 11 17 2 30 4 30 5 0 1 11 3
25 6 157 25 199 33 245 46 22 5 51 12 65 13 30 4 351 86 435 111 33 10 62 19
65 19 12 4 45 15 250 84 118 39 220 73 227 75 7 1 16 5 19 9 4 4 16 7 26 7 10
0 18 5 18 12 0 6 3 9 6 6 9 -10 502 197 515 215 3 5 10 9 15 9 37 1 468 222
692 355 41 24 76 43 78 43 3 0 17 8 32 18 44 30 107 69 112 69 6 1 135 85 165
108 10 8 24 15 31 15 7 0 14 7 18 15 3 8 10 15 15 15 24 0 599 419 671 490 9
8 33 29 54 45 21 17 44 35 50 40 6 6 52 46 101 90 213 187 482 456 640 640 28
32 55 63 60 69 45 50 104 123 175 216 28 36 56 71 62 79 89 107 310 446 412
631 32 58 62 112 66 120 72 122 291 610 330 735 7 22 15 45 19 50 3 6 6 12 7
15 0 3 3 12 7 20 13 33 94 307 102 345 2 11 14 65 25 120 12 55 23 107 25 115
1 8 6 40 9 71 4 31 9 67 13 80 3 13 6 123 8 244 3 247 -11 356 -65 539 -17 55
-32 106 -33 111 -5 19 -109 230 -117 235 -4 3 -19 26 -34 53 -15 26 -32 47
-36 47 -5 0 -12 9 -15 21 -4 12 -58 72 -120 134 -117 118 -293 243 -437 313
-84 40 -248 106 -308 123 -25 7 -49 14 -55 15 -5 2 -46 13 -90 24 -73 19 -103
25 -160 34 -11 2 -33 6 -50 9 -16 3 -52 9 -80 12 -27 4 -61 9 -75 12 -29 6
-655 14 -661 9z"/>
</g>
</svg>
