<?xml version="1.0" encoding="utf-8"?>
<!-- Generator: Adobe Illustrator 23.0.1, SVG Export Plug-In . SVG Version: 6.00 Build 0)  -->
<svg version="1.1" id="Layer_1" xmlns="http://www.w3.org/2000/svg" xmlns:xlink="http://www.w3.org/1999/xlink" x="0px" y="0px"
	 viewBox="0 0 291.7 48" style="enable-background:new 0 0 291.7 48;" xml:space="preserve">
<style type="text/css">
	.st0{fill:#FFFFFF;}
</style>
<title>Artwork 61</title>
<g>
	<g id="Layer_1-2">
		<g id="Artwork_61">
			<g>
				<g>
					<path class="st0" d="M224.2,11.4l6.6,19.6h-13.7L224.2,11.4z M275.6,0v1.8h6.8v29L261.5,0h-18v1.8h6.9v43.5h-5.2L229.4,0h-3.1
						l-16.5,45.3h-5V1.8h7V0h-17.8l-10.2,32.2L174,0h-18.2v1.8h7v43.5h-7V47h16v-1.7H165V3h0.1l14,44.1h2.4L195.7,3h0.2v42.3h-7V47
						h30.2v-1.7H212l4.4-12.5h15.2l4.3,12.5h-7.3V47h31v-1.7h-6.9V3.2L282.5,48h2.1V1.8h7V0H275.6z"/>
					<g>
						<g>
							<path class="st0" d="M121,47.1v-1.8h7.4V1.8c-9.9-0.5-12.9,4.3-14.2,13.3h-2.3L112.7,0H153l0.8,15.1h-2.2
								c-1.3-9-4.3-13.8-14.2-13.3v43.5h7.4V47L121,47.1z"/>
							<path class="st0" d="M50,31.1L50,31.1l7.1-19.6l6.6,19.6H50z M114.4,31.2c-0.3,8.1-3.4,14.1-12.4,14.1h-9.2V1.8h7.3V0H76.8
								v1.8h7v43.5h-5.7L62.4,0h-3.1L42.8,45.3h-5.7V47h15v-1.7h-7.2l4.4-12.5h15.2l4.3,12.5h-7.3V47h54.4l0.7-15.8L114.4,31.2z"/>
							<path class="st0" d="M16,45.3h8.9c6.1,0,7.2-5.9,7.2-10.8c0-6.6-2.2-10.8-9.4-10.8H16V45.3z M16,21.8h6.3
								c5.4,0,8.7-2.5,8.7-10.5C30.9,0,24.7,2,16,1.8V21.8z M0,47.1v-1.8h7V1.8H0V0h21.6c7.7,0,18.9,1.2,18.9,11.3
								c0,7.2-7.4,10.3-13.5,11.2v0.1c6.9,0.5,15.1,4.1,15.1,12.1c0,6.2-4.3,9.5-9.2,11.1C27.7,47.6,21.2,47,16.3,47L0,47.1z"/>
						</g>
					</g>
				</g>
			</g>
		</g>
	</g>
</g>
</svg>
