<?xml version="1.0" encoding="utf-8"?>
<!-- Generator: Adobe Illustrator 23.0.1, SVG Export Plug-In . SVG Version: 6.00 Build 0)  -->
<svg version="1.1" id="Layer_1" xmlns="http://www.w3.org/2000/svg" xmlns:xlink="http://www.w3.org/1999/xlink" x="0px" y="0px"
	 viewBox="0 0 282.5 57.4" style="enable-background:new 0 0 282.5 57.4;" xml:space="preserve">
<style type="text/css">
	.st0{fill:#FFFFFF;}
	.st1{fill-rule:evenodd;clip-rule:evenodd;fill:#FFFFFF;}
</style>
<title>Artwork 11</title>
<g id="Layer_1-2">
	<g id="Artwork_11">
		<g>
			<g>
				<g>
					<g>
						<path class="st0" d="M243.6,7.5c0-2.1-0.9-2.8-3.6-2.8V2.8c2.7,0,7.2-1.8,9.9-2.8v50.8c0,2.8,0.9,3.7,3.6,3.7v1.9H240v-1.9
							c2.7,0,3.6-0.9,3.6-3.7L243.6,7.5z"/>
						<path class="st0" d="M161.8,42.5l-2.7,2.8v5.6c0,3,0.9,3.7,3.6,3.7v1.9h-13.4v-1.9c2.6,0,3.6-0.9,3.6-3.7V7.4
							c0-1.7-0.9-2.6-3.6-2.6l0.1-1.9c2.7,0,7.2-1.8,9.9-2.8v41.5l8.1-8.3c1.8-1.9,0.9-2.8-0.9-2.8v-1.9h11.6v1.9
							c-2.7-0.1-5.2,0.9-7.1,2.8l-4.6,4.5l9,13.9c1.1,1.8,3.2,2.9,5.3,2.8v1.9h-14.3v-1.9c2.6,0,2.4-0.9,1.8-1.9L161.8,42.5z"/>
						<path class="st0" d="M192.8,42.5l-2.7,2.8v5.6c0,3,0.9,3.7,3.6,3.7v1.9h-13.4v-1.9c2.6,0,3.6-0.9,3.6-3.7V7.4
							c0-1.7-0.9-2.6-3.6-2.6l0.1-1.9c2.7,0,7.2-1.8,9.9-2.8v41.5l8.1-8.3c1.8-1.9,0.9-2.8-0.9-2.8v-1.9h11.6v1.9
							c-2.7-0.1-5.2,0.9-7.1,2.8l-4.6,4.5l9,13.9c1.1,1.8,3.2,2.9,5.3,2.8v1.9h-14.3v-1.9c2.6,0,2.4-0.9,1.8-1.9L192.8,42.5z"/>
						<path class="st0" d="M135.1,35.1c0-2-1-2.7-3.6-2.7v-1.8c2.7,0,7.2-1.9,9.9-2.8v23.1c0,2.6,0.9,3.7,3.6,3.7v1.8h-13.4v-1.8
							c2.7,0,3.6-1.2,3.6-3.7V35.1z"/>
						<path class="st0" d="M138.3,10.3c2.7,0,3.6,2.8,3.6,4.6s-0.9,4.6-3.6,4.6s-3.6-2.8-3.6-4.6S135.6,10.3,138.3,10.3"/>
						<path class="st0" d="M120.1,38.8V8.3c0-3.6-1.8-5.5-5.3-5.5V1h13.4v1.8c-3.6,0-5.3,1.7-5.3,5.5v49h-2.7L89.5,6.5v42.4
							c0,3.6,1.8,5.6,5.4,5.6v1.9H81.5v-1.9c3.6,0,5.4-1.9,5.4-5.6V8.3c0-3.7-1.8-5.5-5.4-5.5V1h16.4L120.1,38.8z"/>
						<path class="st0" d="M30.6,57.4l-9.8-24.1c-0.7-1.7-0.9-2.8-3.6-2.8v-1.9h13.4v1.9c-3.6,0-3.7,1-2.7,3.8l5.4,14.8l5.4-14
							c0.9-2.3,1.8-4.6-1.8-4.6v-1.9h9v1.9c-2.7,0-3.4,0.8-4.5,3.7l-9,23.2H30.6z"/>
						<path class="st0" d="M13.5,49.1c0,3.8,1.8,5.5,5.3,5.5v1.9H0.1v-1.9c3.5,0,5.3-1.8,5.3-5.5V8.3c0-3.7-1.8-5.5-5.4-5.5V1h18.8
							v1.8c-3.6,0-5.3,1.8-5.3,5.5V49.1z"/>
						<path class="st1" d="M66.6,42.6c0,4.5-0.9,12.9-7.2,12.9s-7.2-8.3-7.2-12.9c0-4.8,0.9-13,7.2-13S66.6,37.9,66.6,42.6z
							 M59.5,27.7c-8.1,0-13.5,7.3-13.5,14.8c0,8.3,5.4,14.8,13.5,14.8s13.4-6.5,13.4-14.7C72.9,35.1,68.4,27.7,59.5,27.7"/>
						<path class="st1" d="M231.7,42.6c0,4.5-0.9,12.9-7.2,12.9s-7.2-8.3-7.2-12.9c0-4.8,0.9-13,7.2-13S231.7,37.9,231.7,42.6z
							 M224.5,27.7c-8.1,0-13.5,7.3-13.5,14.8c0,8.3,5.4,14.8,13.5,14.8S238,50.9,238,42.6C238,35.1,233.5,27.7,224.5,27.7"/>
						<path class="st1" d="M276.2,42.6c0,4.5-0.9,12.9-7.2,12.9s-7.2-8.3-7.2-12.9c0-4.8,0.9-13,7.2-13S276.2,37.9,276.2,42.6z
							 M269,27.7c-8.1,0-13.5,7.3-13.5,14.8c0.1,8.3,5.4,14.8,13.5,14.8s13.5-6.5,13.5-14.7C282.5,35.1,277.9,27.7,269,27.7"/>
					</g>
				</g>
			</g>
		</g>
	</g>
</g>
</svg>
