<?xml version="1.0" encoding="utf-8"?>
<!-- Generator: Adobe Illustrator 23.0.1, SVG Export Plug-In . SVG Version: 6.00 Build 0)  -->
<svg version="1.1" id="Layer_1" xmlns="http://www.w3.org/2000/svg" xmlns:xlink="http://www.w3.org/1999/xlink" x="0px" y="0px"
	 viewBox="0 0 340.1 57.2" style="enable-background:new 0 0 340.1 57.2;" xml:space="preserve">
<style type="text/css">
	.st0{fill:#FFFFFF;}
</style>
<title>Artwork 26</title>
<g id="Layer_1-2">
	<g id="Artwork_26">
		<g>
			<g>
				<g>
					<g>
						<path class="st0" d="M340.1,57.2v-37c0-1.8-0.3-2.9-1.1-3.5c-0.6-0.9-1.7-1.2-3.4-1.2h-34v41.7h12.8v-29h12.8v29H340.1z
							 M282.5,57.2v-37c0.1-1.3-0.3-2.5-1.1-3.5c-0.9-0.9-1.7-1.2-3.4-1.2H244v37c-0.1,1.2,0.2,2.5,0.9,3.5c1,0.8,2.2,1.2,3.4,1.2
							L282.5,57.2z M269.7,44.6h-12.9V28.2h12.9V44.6z M179.8,57.2v-37c0.1-1.3-0.3-2.5-1.1-3.5c-0.9-0.9-1.7-1.2-3.4-1.2h-34v41.7
							h12.8v-29h12.8v29H179.8z M64.2,57.2v-37c0.1-1.3-0.3-2.5-1.1-3.5c-0.9-0.9-2.2-1.3-3.4-1.2H0v41.7h12.9v-29h12.8v16.4h12.8
							V28.2h12.8v29.1H64.2z M224.6,57.2V44.6h-12.9V28.2h12.9V15.6h-12.9V0h-12.8v52.5c0,1.8,0.3,2.6,1.1,3.5
							c0.9,0.8,2.2,1.2,3.4,1.2L224.6,57.2z M121.8,57.2v-37c0-1.8-0.3-2.9-1.1-3.5c-0.6-0.9-1.7-1.2-3.4-1.2h-34v37
							c0,1.8,0.3,2.6,1.2,3.5c0.9,0.8,2.2,1.2,3.4,1.2L121.8,57.2z M109,44.6H96.2V28.2H109V44.6z"/>
					</g>
				</g>
			</g>
		</g>
	</g>
</g>
</svg>
